<?xml version="1.0" standalone="no"?>
<!DOCTYPE svg PUBLIC "-//W3C//DTD SVG 20010904//EN"
 "http://www.w3.org/TR/2001/REC-SVG-20010904/DTD/svg10.dtd">
<svg version="1.0" xmlns="http://www.w3.org/2000/svg"
 width="500.000000pt" height="500.000000pt" viewBox="0 0 500.000000 500.000000"
 preserveAspectRatio="xMidYMid meet">
<metadata>
Created by potrace 1.14, written by Peter Selinger 2001-2017
</metadata>
<g transform="translate(0.000000,500.000000) scale(0.100000,-0.100000)"
fill="#000000" stroke="none">
<path d="M2309 4986 c-2 -2 -33 -6 -69 -10 -115 -11 -143 -16 -270 -42 -463
-97 -910 -338 -1249 -674 -352 -349 -615 -856 -686 -1325 -3 -16 -7 -41 -10
-55 -19 -95 -27 -465 -13 -595 26 -227 79 -444 154 -637 41 -104 148 -324 170
-349 8 -8 14 -19 14 -23 0 -4 26 -46 59 -94 203 -302 446 -538 756 -733 117
-73 318 -171 460 -224 94 -35 357 -107 435 -118 19 -3 55 -8 80 -12 25 -3 59
-9 75 -11 17 -3 125 -7 240 -8 258 -5 448 17 695 79 128 32 359 123 505 199
116 60 284 161 295 178 3 4 24 20 47 35 52 35 121 92 198 163 298 275 527 623
661 1003 28 80 80 273 89 327 3 19 7 46 10 60 23 126 29 198 29 400 1 197 -6
290 -28 418 -51 279 -140 531 -282 791 -23 42 -172 266 -199 300 -243 299
-527 533 -835 685 -41 21 -83 42 -92 47 -66 35 -323 125 -443 155 -16 4 -34 8
-40 10 -27 7 -251 46 -288 50 -50 6 -463 14 -468 10z"/>
</g>
</svg>
